<svg width="51" height="70" viewBox="0 0 51 70" fill="none" xmlns="http://www.w3.org/2000/svg">
<path d="M15.9718 11.8909C18.3219 11.8909 20.2223 12.8628 21.673 14.8067C23.1236 16.7216 23.849 19.5069 23.849 23.1626C23.849 27.4275 22.9205 30.5755 21.0637 32.6064C19.2068 34.6083 16.8132 35.6093 13.8829 35.6093C11.881 35.6093 10.2562 35.1015 9.00864 34.0861C7.96416 33.999 6.91968 34.1151 5.8752 34.4342C4.83072 34.7534 4.00384 35.1741 3.39456 35.6963L2.74176 35.3046C2.94485 34.5793 3.0464 33.7669 3.0464 32.8675V6.18976C3.0464 4.85515 2.8288 3.8832 2.3936 3.27392C1.98741 2.66464 1.27659 2.36 0.26112 2.36V1.44608C1.16053 1.53312 2.05995 1.57664 2.95936 1.57664C5.48352 1.57664 7.60149 1.37355 9.31328 0.96736V16.0253C9.92256 14.6907 10.8075 13.6752 11.968 12.9789C13.1285 12.2535 14.4631 11.8909 15.9718 11.8909ZM12.5338 34.6954C14.1295 34.6954 15.319 33.7959 16.1024 31.9971C16.8858 30.1983 17.2774 27.4565 17.2774 23.7718C17.2774 20.2032 16.9438 17.65 16.2765 16.1123C15.6092 14.5456 14.6517 13.7622 13.4042 13.7622C12.4757 13.7622 11.6198 14.1104 10.8365 14.8067C10.0821 15.474 9.5744 16.3879 9.31328 17.5485V33.5203C10.2707 34.3037 11.3442 34.6954 12.5338 34.6954ZM23.1438 52.6093H21.7076L33.5451 20.5786H34.9812L23.1438 52.6093ZM42.8322 45.8909C43.9057 45.8909 44.9211 46.0069 45.8786 46.239C46.836 46.4711 47.6339 46.7903 48.2722 47.1965C49.0265 47.6607 49.6068 48.2555 50.013 48.9808C50.4482 49.6771 50.6658 50.446 50.6658 51.2874C50.6658 52.3028 50.3466 53.1442 49.7083 53.8115C49.07 54.4498 48.2432 54.769 47.2277 54.769C46.2122 54.769 45.3999 54.4788 44.7906 53.8986C44.1813 53.3183 43.8767 52.5349 43.8767 51.5485C43.8767 50.6781 44.1523 49.9237 44.7035 49.2854C45.2548 48.6471 45.9366 48.2119 46.749 47.9798C46.5169 47.6607 46.1542 47.4141 45.661 47.24C45.1968 47.0369 44.689 46.9354 44.1378 46.9354C42.397 46.9354 41.0334 47.8928 40.0469 49.8077C39.0895 51.6935 38.6107 54.1742 38.6107 57.2496C38.6107 60.354 39.162 62.5881 40.2645 63.9517C41.367 65.3153 42.7451 65.9971 44.3989 65.9971C45.3854 65.9971 46.3718 65.736 47.3583 65.2138C48.3737 64.6915 49.2876 63.7776 50.1 62.472L50.8399 62.7331C50.2596 64.619 49.2441 66.2437 47.7935 67.6074C46.3428 68.942 44.4714 69.6093 42.1794 69.6093C39.191 69.6093 36.7539 68.6228 34.868 66.6499C32.9822 64.677 32.0392 61.7467 32.0392 57.8589C32.0392 55.3057 32.5034 53.1297 33.4319 51.3309C34.3603 49.5321 35.6369 48.1829 37.2616 47.2835C38.8864 46.3551 40.7432 45.8909 42.8322 45.8909Z" fill="#23242C"/>
</svg>
