<svg width="255" height="33" viewBox="0 0 255 33" fill="none" xmlns="http://www.w3.org/2000/svg">
<g filter="url(#filter0_d)">
<path d="M4.97528 24.2238H14.0126V23.7686C10.7618 23.346 9.78652 21.9807 9.78652 18.6973V3.77598H9.98157L18.4338 24.2563H19.6041L27.1785 3.77598H27.341V21.9157C27.341 23.216 26.5283 23.6711 24.2202 23.7686V24.2238H35.4356V23.7686C32.7049 23.6711 32.0548 23.151 32.0548 21.9157V3.87351C32.0548 2.63819 32.7049 2.08555 35.4356 1.98802V1.56541H27.146L21.0019 18.2747H20.8394L14.1426 1.56541H4.97528V1.98802C7.771 2.05304 8.97381 3.54842 8.97381 5.49893V18.6973C8.97381 21.9807 8.03107 23.3785 4.97528 23.7686V24.2238Z" fill="white"/>
<path d="M51.4646 21.233C52.0822 22.9559 51.4971 23.6386 48.3763 23.7686V24.2238H60.0143V23.7686C57.5761 23.411 57.0885 22.8909 56.3733 21.0054L49.0264 1.04528H46.8159L40.0866 18.4698C38.7538 21.8181 37.5185 23.216 35.4054 23.7686V24.2238H43.0774V23.7686C40.0541 23.346 39.534 22.1107 40.8668 18.5998L41.9721 15.609H49.449L51.4646 21.233ZM42.2322 14.9589L45.7431 5.56394H45.9056L49.2215 14.9589H42.2322Z" fill="white"/>
<path d="M60.3736 24.2238H71.524C79.9437 24.2238 83.3571 18.5673 83.3571 12.4882C83.3571 6.11659 79.261 1.56541 71.0039 1.56541H60.3736V1.98802C63.0718 2.08555 63.7545 2.63819 63.7545 3.87351V21.9157C63.7545 23.151 63.0718 23.6711 60.3736 23.7686V24.2238ZM68.5007 23.6061V2.15056H70.4512C75.5875 2.15056 78.1882 4.45866 78.1882 12.8133C78.1882 21.1355 76.1727 23.6061 70.5162 23.6061H68.5007Z" fill="white"/>
<path d="M91.9614 24.2238H103.209V23.7686C100.869 23.6711 100.088 23.2485 100.088 21.9157V12.7808H109.256V21.9157C109.256 23.2485 108.443 23.6711 106.103 23.7686V24.2238H117.383V23.7686C114.652 23.6711 114.002 23.1835 114.002 21.9157V3.841C114.002 2.60568 114.652 2.08555 117.383 1.98802V1.56541H106.103V1.98802C108.443 2.08555 109.256 2.54066 109.256 3.841V12.1306H100.088V3.841C100.088 2.54066 100.869 2.08555 103.209 1.98802V1.56541H91.9614V1.98802C94.6596 2.08555 95.3422 2.60568 95.3422 3.841V21.9157C95.3422 23.1835 94.6596 23.6711 91.9614 23.7686V24.2238Z" fill="white"/>
<path d="M133.402 21.233C134.02 22.9559 133.435 23.6386 130.314 23.7686V24.2238H141.952V23.7686C139.514 23.411 139.026 22.8909 138.311 21.0054L130.964 1.04528H128.753L122.024 18.4698C120.691 21.8181 119.456 23.216 117.343 23.7686V24.2238H125.015V23.7686C121.992 23.346 121.472 22.1107 122.804 18.5998L123.91 15.609H131.387L133.402 21.233ZM124.17 14.9589L127.681 5.56394H127.843L131.159 14.9589H124.17Z" fill="white"/>
<path d="M144.802 24.2238H157.09V23.7686C154.197 23.7036 153.319 23.151 153.319 21.9157V2.15056H154.099C156.602 2.15056 158.553 4.65371 160.829 9.07485L161.316 9.00983L161.154 1.56541H140.706L140.511 9.00983L140.998 9.07485C143.307 4.55618 145.29 2.15056 147.76 2.15056H148.573V21.9157C148.573 23.151 147.663 23.7036 144.802 23.7686V24.2238Z" fill="white"/>
<path d="M167.945 24.2238H180.233V23.7686C177.34 23.7036 176.462 23.151 176.462 21.9157V2.15056H177.243C179.746 2.15056 181.696 4.65371 183.972 9.07485L184.459 9.00983L184.297 1.56541H163.849L163.654 9.00983L164.142 9.07485C166.45 4.55618 168.433 2.15056 170.903 2.15056H171.716V21.9157C171.716 23.151 170.806 23.7036 167.945 23.7686V24.2238Z" fill="white"/>
<path d="M186.852 24.2238H207.104L207.267 16.0642L206.779 15.9991C204.406 21.5906 202.911 23.6061 198.197 23.6061H194.979V12.7483H196.344C198.945 12.7483 200.44 13.8861 201.318 17.2345H201.74V7.74201H201.318C200.44 11.0579 198.945 12.1631 196.344 12.1631H194.979V2.15056H198.36C202.358 2.15056 203.593 4.29612 205.869 9.33492L206.357 9.30241L206.259 1.56541H186.852V1.98802C189.55 2.08555 190.232 2.63819 190.232 3.87351V21.9157C190.232 23.151 189.55 23.6711 186.852 23.7686V24.2238Z" fill="white"/>
<path d="M218.217 12.4882V2.15056H220.07C224.134 2.15056 225.369 4.10107 225.369 7.3519C225.369 11.0254 224.491 12.4882 220.428 12.4882H218.217ZM218.217 13.0409H220.038C223.743 13.0409 224.621 14.1462 224.946 17.4295L225.206 20.2577C225.466 23.1185 226.149 24.3863 230.213 24.3863C231.285 24.3863 232.456 24.2888 233.659 24.0937V23.7036C230.96 23.6386 230.505 23.216 230.115 20.5828L229.92 18.0797C229.497 15.0239 228.23 12.9108 223.451 12.7483V12.6508C228.555 11.9356 230.343 9.85505 230.343 7.05933C230.343 4.06856 227.937 1.56541 221.175 1.56541H210.09V1.98802C212.788 2.08555 213.471 2.63819 213.471 3.87351V21.9157C213.471 23.151 212.788 23.6711 210.09 23.7686V24.2238H221.435V23.7686C219.062 23.6711 218.217 23.216 218.217 21.9157V13.0409Z" fill="white"/>
<path d="M234.867 24.7764H235.258L237.176 23.151C238.736 24.0287 241.109 24.6464 242.93 24.6464C248.521 24.6464 250.797 20.8104 250.797 17.0394C250.797 12.8133 247.416 11.448 244.295 10.4727C240.491 9.2699 238.476 8.06709 238.476 5.53144C238.476 3.09331 240.426 1.76046 242.474 1.76046C245.01 1.76046 247.091 3.841 249.236 8.29465H249.756V0.947754H249.366L247.936 2.37812C246.733 1.69545 244.88 1.1428 242.962 1.1428C238.411 1.1428 235.193 3.93853 235.193 8.22963C235.193 12.4232 238.638 13.691 242.052 14.8288C245.953 16.1292 247.903 17.397 247.903 20.0302C247.903 22.0782 246.375 24.0287 243.417 24.0287C240.199 24.0287 237.533 21.0704 235.388 16.5518H234.867V24.7764Z" fill="white"/>
</g>
<defs>
<filter id="filter0_d" x="0.975281" y="0.947754" width="253.821" height="31.8286" filterUnits="userSpaceOnUse" color-interpolation-filters="sRGB">
<feFlood flood-opacity="0" result="BackgroundImageFix"/>
<feColorMatrix in="SourceAlpha" type="matrix" values="0 0 0 0 0 0 0 0 0 0 0 0 0 0 0 0 0 0 127 0" result="hardAlpha"/>
<feOffset dy="4"/>
<feGaussianBlur stdDeviation="2"/>
<feComposite in2="hardAlpha" operator="out"/>
<feColorMatrix type="matrix" values="0 0 0 0 0 0 0 0 0 0 0 0 0 0 0 0 0 0 0.25 0"/>
<feBlend mode="normal" in2="BackgroundImageFix" result="effect1_dropShadow"/>
<feBlend mode="normal" in="SourceGraphic" in2="effect1_dropShadow" result="shape"/>
</filter>
</defs>
</svg>
